<svg id="Capa_1" enable-background="new 0 0 510.874 510.874" height="512" viewBox="0 0 510.874 510.874" width="512" xmlns="http://www.w3.org/2000/svg"><g><path d="m372.035 503.374h-256.71c-4.651 0-8.422-3.771-8.422-8.422v-25.26c0-50.135 40.643-90.778 90.778-90.778h91.998c50.135 0 90.778 40.643 90.778 90.778v25.26c0 4.651-3.77 8.422-8.422 8.422z" fill="#f7f7f7"/><path d="m289.679 378.914h-30c50.135 0 90.778 40.643 90.778 90.778v25.26c0 4.651-3.771 8.422-8.422 8.422h30c4.651 0 8.422-3.771 8.422-8.422v-25.26c0-50.135-40.643-90.778-90.778-90.778z" fill="#e8e8e8"/><g fill="#e3a76f"><ellipse cx="125.536" cy="218.534" rx="36.971" ry="37.487"/><ellipse cx="361.824" cy="218.534" rx="36.971" ry="37.487"/><path d="m244.607 412.181h-1.854c-17.074 0-30.916-13.841-30.916-30.916v-83.626h63.686v83.626c0 17.074-13.842 30.916-30.916 30.916z"/><path d="m125.536 135.869v124.021c0 51.509 41.756 93.265 93.265 93.265h49.757c51.509 0 93.265-41.756 93.265-93.265v-124.021z"/></g><path d="m380.309 84.872c10.175-6.575 41.143-9.354 41.143-9.354-35.503-53.912-127.674-27.464-127.674-27.464-5.351-11.834 31.075-30.187 31.075-30.187-79.116-36.759-155.058 35.446-155.058 35.446-3.102-6.575 0-27.554 0-27.554-50.439 2.689-50.81 63.057-50.81 63.057-10.519-2.63-23.669-7.89-23.669-7.89-1.586 17.449 9.736 33.837 18.971 44.096 7.194 7.991 11.249 18.313 11.249 29.066v50.624h32.945v-45.775c0-12.741 10.329-23.069 23.069-23.069h124.695c12.741 0 23.069 10.328 23.069 23.069v45.775h32.508v-59.302c0-10.171 9.243-17.995 19.221-16.024 17.61 3.479 40.407 17.703 40.407 17.703 7.892-38.132-41.141-62.217-41.141-62.217z" fill="#995e34"/><path d="m384.394 82.623c9.368-3.657 24.768-5.781 32.232-6.646 1.979-.229 2.942-2.529 1.738-4.116-14.8-19.514-37.634-27.263-59.762-29.522-2.781-.284-3.947 3.396-1.524 4.791 7.627 4.391 14.558 10.179 20.285 17.73 1.205 1.588.243 3.889-1.737 4.118-7.464.865-22.865 2.99-32.233 6.647-1.981.773-2.179 3.507-.346 4.586 10.101 5.944 34.945 22.925 37.538 47.437.112 1.055.892 1.927 1.924 2.171 13.193 3.113 28.63 11.53 35.209 15.346 1.605.931 3.643-.094 3.847-1.939 3.225-29.114-26.264-49.393-37.511-56.011-1.835-1.083-1.644-3.818.34-4.592z" fill="#804e2b"/><path d="m188.936 294.198h-43.213c-17.206 0-31.155-13.949-31.155-31.155v-58.329h105.523v58.329c0 17.206-13.949 31.155-31.155 31.155z" fill="#544f56"/><path d="m340.572 294.198h-43.213c-17.206 0-31.155-13.949-31.155-31.155v-58.33h105.523v58.329c0 17.207-13.948 31.156-31.155 31.156z" fill="#544f56"/><path d="m187.441 204.714v55.577c0 18.726-15.181 33.907-33.907 33.907h32.65c18.726 0 33.907-15.181 33.907-33.907v-55.577z" fill="#444145"/><path d="m339.077 204.714v55.577c0 18.726-15.181 33.907-33.907 33.907h32.65c18.726 0 33.907-15.181 33.907-33.907v-55.577z" fill="#444145"/><g><path d="m409.025 96.263c-3.886-3.718-7.867-6.904-11.493-9.519 8.176-1.824 17.941-3.156 24.593-3.755 2.627-.237 4.938-1.836 6.083-4.212 1.146-2.376.96-5.179-.491-7.382-15.962-24.239-44.795-37.146-83.38-37.324-13.895-.058-26.624 1.508-36.085 3.155 5.232-4.181 12.571-8.921 19.976-12.659 2.568-1.294 4.171-3.942 4.125-6.817s-1.731-5.471-4.339-6.683c-34.42-15.991-73.675-14.629-113.525 3.942-16.43 7.656-29.714 16.685-38.431 23.345.197-3.616.588-7.637 1.156-11.497.329-2.226-.358-4.483-1.874-6.146-1.516-1.664-3.696-2.56-5.944-2.44-23.71 1.264-41.293 14.111-50.849 37.153-3.629 8.751-5.393 17.358-6.251 23.638-7.429-2.403-14.103-5.062-14.196-5.099-2.198-.879-4.685-.668-6.703.57-2.02 1.238-3.336 3.356-3.55 5.715-1.817 19.98 10.344 38.106 20.866 49.793 6.012 6.678 9.323 15.219 9.323 24.048v20.11c-20.961 3.618-36.972 22.115-36.972 44.334 0 17.55 10.351 33.67 26.003 40.924v3.585c0 13.545 7.009 25.477 17.584 32.382.086.515.224 1.028.424 1.533 7.352 18.574 19.95 34.423 36.433 45.834 12.885 8.92 27.48 14.618 42.829 16.822v11.8h-6.656c-54.19 0-98.278 44.087-98.278 98.278v25.26c0 8.779 7.143 15.922 15.922 15.922h119.008c4.143 0 7.5-3.358 7.5-7.5s-3.357-7.5-7.5-7.5h-49.779v-16.338c0-4.142-3.357-7.5-7.5-7.5s-7.5 3.358-7.5 7.5v16.338h-54.229c-.509 0-.922-.413-.922-.922v-25.26c0-45.92 37.358-83.278 83.278-83.278h7.011c2.525 18.755 18.626 33.266 38.061 33.266h1.854c19.435 0 35.536-14.511 38.061-33.266h7.011c45.92 0 83.278 37.358 83.278 83.278v25.26c0 .508-.413.922-.922.922h-54.229v-16.338c0-4.142-3.357-7.5-7.5-7.5s-7.5 3.358-7.5 7.5v16.338h-38.475c-4.143 0-7.5 3.358-7.5 7.5s3.357 7.5 7.5 7.5h107.703c8.779 0 15.922-7.142 15.922-15.922v-25.26c0-54.191-44.088-98.278-98.278-98.278h-6.656v-11.812c36.455-5.252 67.472-30.089 80.25-65.301 9.659-7.034 15.954-18.422 15.954-31.259v-3.105c16.186-6.974 27.067-23.248 27.067-41.404 0-22.219-16.01-40.715-36.971-44.334v-28.788c0-2.668 1.185-5.173 3.251-6.871 1.166-.958 3.627-2.464 7.017-1.796 16.028 3.167 37.677 16.575 37.892 16.709 2.082 1.3 4.669 1.497 6.921.532 2.256-.965 3.896-2.973 4.393-5.375 3.777-18.252-3.06-36.353-19.771-52.346zm-312.96 122.27c0-13.898 9.342-25.615 21.972-28.999v7.68h-3.469c-4.143 0-7.5 3.358-7.5 7.5v37.161c-6.799-5.613-11.003-14.18-11.003-23.342zm26.003-6.319h90.524v50.829c0 13.043-10.611 23.655-23.655 23.655h-43.214c-13.043 0-23.654-10.612-23.654-23.655v-50.829zm122.539 192.466h-1.854c-12.912 0-23.416-10.504-23.416-23.416v-20.61h48.686v20.61c0 12.912-10.504 23.416-23.416 23.416zm23.952-59.025h-49.758c-31.613 0-59.939-16.954-74.937-44.004.616.029 45.072.047 45.072.047 21.314 0 38.655-17.341 38.655-38.655v-21.003c0-8.578 6.979-15.557 15.556-15.557 8.578 0 15.558 6.979 15.558 15.557v21.003c0 21.314 17.34 38.655 38.654 38.655h43.213c.999 0 1.985-.05 2.965-.125-14.915 26.874-43.385 44.082-74.978 44.082zm95.668-133.441v50.829c0 13.043-10.611 23.655-23.655 23.655h-43.213c-13.043 0-23.654-10.611-23.654-23.655v-50.83h90.522zm27.067 6.319c0 9.734-4.671 18.633-12.067 24.171v-37.991c0-4.142-3.357-7.5-7.5-7.5h-2.403v-7.68c12.629 3.386 21.97 15.102 21.97 29zm-8.795-96.505c-6.896-1.363-13.983.432-19.447 4.922-5.547 4.558-8.728 11.286-8.728 18.459v51.803h-17.508v-38.275c0-16.856-13.713-30.569-30.569-30.569h-64.409c-4.143 0-7.5 3.358-7.5 7.5s3.357 7.5 7.5 7.5h64.409c8.585 0 15.569 6.984 15.569 15.569v38.275h-55.611c-4.142 0-7.5 3.358-7.5 7.5v11.042c-4.561-2.709-9.879-4.271-15.558-4.271-5.678 0-10.996 1.562-15.556 4.271v-11.041c0-4.142-3.357-7.5-7.5-7.5h-54.109v-38.275c0-8.585 6.984-15.569 15.569-15.569h30.286c4.143 0 7.5-3.358 7.5-7.5s-3.357-7.5-7.5-7.5h-30.286c-16.856 0-30.569 13.713-30.569 30.569v38.275h-17.945v-43.123c0-12.542-4.679-24.647-13.175-34.085-10.004-11.111-14.521-20.563-16.262-28.031 4.218 1.451 9.087 2.999 13.564 4.119 2.233.557 4.598.061 6.417-1.35 1.818-1.411 2.888-3.578 2.902-5.88.001-.136.15-13.783 5.919-27.693 6.002-14.473 15.682-23.399 28.842-26.629-.608 7.658-.656 16.838 1.767 21.973 1.026 2.175 3.036 3.724 5.4 4.168 2.36.445 4.799-.274 6.546-1.929.184-.174 18.722-17.582 46.255-30.33 30.606-14.172 59.578-17.231 86.343-9.154-1.524.995-3.083 2.055-4.625 3.164-5.407 3.888-21.86 15.719-15.986 28.711 1.533 3.389 5.324 5.141 8.897 4.12.804-.229 74.617-20.728 111.123 14.467-10.455 1.587-23.806 4.37-30.726 8.841-2.27 1.466-3.575 4.04-3.417 6.738s1.755 5.101 4.181 6.293c.386.189 33.998 17.019 37.503 42.928-8.67-4.57-21.093-10.347-32.006-12.503z"/><path d="m262.059 295.176c-4.142 0-7.5 3.358-7.5 7.5 0 6.14-4.88 11.135-10.879 11.135s-10.879-4.995-10.879-11.135c0-4.142-3.357-7.5-7.5-7.5s-7.5 3.358-7.5 7.5c0 14.411 11.609 26.135 25.879 26.135s25.879-11.724 25.879-26.135c0-4.143-3.357-7.5-7.5-7.5z"/></g></g></svg>