<svg id="Capa_1" enable-background="new 0 0 509.248 509.248" height="512" viewBox="0 0 509.248 509.248" width="512" xmlns="http://www.w3.org/2000/svg"><g><path d="m400.437 501.748h-291.626c-12.087 0-21.886-9.799-21.886-21.886v-296.948h335.397v296.948c0 12.087-9.798 21.886-21.885 21.886z" fill="#ecc52e"/><path d="m392.322 182.914v296.948c0 12.087-9.799 21.886-21.886 21.886h30c12.087 0 21.886-9.799 21.886-21.886v-296.948z" fill="#dbb72b"/><path d="m382.979 501.791h-256.71c-4.651 0-8.422-3.771-8.422-8.422v-32.259c0-50.135 40.643-90.778 90.778-90.778h91.998c50.135 0 90.778 40.643 90.778 90.778v32.259c0 4.652-3.771 8.422-8.422 8.422z" fill="#ad7fdd"/><path d="m300.623 370.332h-30c50.135 0 90.778 40.643 90.778 90.778v32.259c0 4.651-3.771 8.422-8.422 8.422h30c4.651 0 8.422-3.771 8.422-8.422v-32.259c0-50.135-40.643-90.778-90.778-90.778z" fill="#9d66d6"/><g fill="#f2d1a5"><ellipse cx="136.48" cy="209.951" rx="36.971" ry="37.487"/><ellipse cx="372.768" cy="209.951" rx="36.971" ry="37.487"/><path d="m254.624 403.598c-17.586 0-31.843-14.257-31.843-31.843v-81.772c0-.512.415-.927.927-.927h61.832c.512 0 .927.415.927.927v81.772c0 17.586-14.257 31.843-31.843 31.843z"/><path d="m279.503 344.572h-49.757c-51.509 0-93.265-41.756-93.265-93.265v-110.442c0-54.151 43.898-98.048 98.048-98.048h40.191c54.151 0 98.048 43.898 98.048 98.048v110.442c0 51.509-41.757 93.265-93.265 93.265z"/></g><path d="m422.322 213.879v-74.593c0-72.783-59.002-131.786-131.786-131.786h-71.824c-72.784 0-131.786 59.003-131.786 131.787v74.593l.563-.113c37.72-7.539 70.068-31.583 88.151-65.533l.661-1.241.343-.257c1.34-1.003 3.181-1.002 4.52.003 106.658 99.454 241.158 67.14 241.158 67.14z" fill="#f7e365"/><path d="m290.536 7.5h-30c72.784 0 131.786 59.003 131.786 131.786v74.593s-14.479 3.479-37.703 4.64c40.106 1.99 67.703-4.64 67.703-4.64v-74.593c0-72.783-59.002-131.786-131.786-131.786z" fill="#f5de46"/><path d="m201.298 282.284h-39.161c-17.206 0-31.155-13.948-31.155-31.155v-54.893h101.471v54.893c0 17.207-13.949 31.155-31.155 31.155z" fill="#8c818f"/><path d="m201.056 196.236v53.443c0 18.007-14.598 32.605-32.605 32.605h31.396c18.007 0 32.605-14.598 32.605-32.605v-53.443z" fill="#766d78"/><path d="m347.111 282.284h-39.161c-17.206 0-31.155-13.948-31.155-31.155v-54.893h101.471v54.893c0 17.207-13.948 31.155-31.155 31.155z" fill="#8c818f"/><path d="m346.87 196.236v53.443c0 18.007-14.598 32.605-32.605 32.605h31.396c18.007 0 32.605-14.598 32.605-32.605v-53.443z" fill="#766d78"/><g><path d="m270.538 292.14c-4.143 0-7.5 3.358-7.5 7.5 0 2.352-3.599 4.982-8.414 4.982s-8.414-2.63-8.414-4.982c0-4.142-3.357-7.5-7.5-7.5s-7.5 3.358-7.5 7.5c0 11.018 10.504 19.982 23.414 19.982s23.414-8.964 23.414-19.982c0-4.142-3.357-7.5-7.5-7.5z"/><path d="m290.536 0h-71.824c-76.803 0-139.286 62.484-139.286 139.287v194.463c0 4.142 3.357 7.5 7.5 7.5s7.5-3.358 7.5-7.5v-109.071c4.63 13.685 15.5 24.195 29.104 28.334.412 8.538 3.607 16.357 8.695 22.57-.017.707.062 1.428.257 2.145 10.585 39.053 43.568 67.577 82.8 73.279v11.825h-6.656c-54.191 0-98.278 44.087-98.278 98.278 0 0 .028 32.845.044 33.138h-1.58c-7.933 0-14.386-6.454-14.386-14.386v-116.112c0-4.142-3.357-7.5-7.5-7.5s-7.5 3.358-7.5 7.5v116.112c0 16.203 13.183 29.386 29.386 29.386h291.625c16.203 0 29.386-13.183 29.386-29.386v-137.741c0-4.142-3.357-7.5-7.5-7.5-4.142 0-7.5 3.358-7.5 7.5v137.741c0 7.932-6.453 14.386-14.386 14.386h-1.58c.016-.292.044-33.138.044-33.138 0-54.191-44.088-98.278-98.278-98.278h-6.656v-11.818c39.643-5.728 72.744-34.645 83.056-74.251.128-.491.203-.984.23-1.471 4.952-6.165 8.06-13.871 8.466-22.277 13.604-4.138 24.473-14.645 29.103-28.329v87.436c0 4.142 3.358 7.5 7.5 7.5 4.143 0 7.5-3.358 7.5-7.5v-172.836c0-76.803-62.483-139.286-139.286-139.286zm-195.875 139.288c.012-2.449.023-4.898.035-7.347.028-5.787 1.135-11.86 2.33-17.534 2.399-11.388 6.517-22.395 12.038-32.634 5.536-10.268 12.482-19.773 20.557-28.19 8.066-8.407 17.268-15.736 27.326-21.621 4.117-2.409 8.377-4.575 12.754-6.472 2.191-.949 4.411-1.831 6.656-2.642.62-.224 6.822-1.996 6.822-2.222 24.779-7.204 51.063-6.469 76.865-6.072 28.294.436 57.502.577 83.47 11.819 25.452 11.019 45.848 32.324 57.85 57.328s15.915 53.477 13.444 81.102c-57.075 7.865-116.549-2.753-167.377-29.879-3.372-1.8-6.897-3.721-10.72-3.705s-7.934 2.779-7.937 6.602c-.003 3.825 3.754 6.431 7.11 8.267 54.147 29.607 117.713 41.665 178.941 33.944.001 9.229.002 18.459.004 27.688-9.689 1.074-19.377 2.148-29.066 3.222-.849-3.686.099-7.517.251-11.296s-.862-8.108-4.191-9.903c-1.821-.982-3.987-1.005-6.055-1.006-31.736-.004-63.471-.009-95.207-.013-4.204-.001-9.401.642-10.892 4.573-28.02-10.299-54.02-26.063-76.108-46.145-4.742-4.312-10.415-9.171-16.701-7.919-5.919 1.178-9.33 7.195-12.403 12.39-15.28 25.836-41.058 45.25-70.109 52.801.451-.056.105-21.954.115-23.998.039-8.08.077-16.16.116-24.241.028-5.635.055-11.266.082-16.897zm43.82 111.842v-47.393h86.471v47.393c0 13.043-10.611 23.655-23.654 23.655h-39.161c-13.044-.001-23.656-10.612-23.656-23.655zm14.962-62.394c10.396-9.403 19.38-20.46 26.555-32.899 14.038 12.599 29.141 23.58 45.196 32.899zm86.509 7.948c5.646 2.822 11.397 5.45 17.252 7.88-.851-.074-1.71-.119-2.58-.119-5.335 0-10.341 1.422-14.672 3.897zm44.343 8.027c.033-.327.042-.652.033-.975h86.439v47.393c0 13.043-10.611 23.655-23.655 23.655h-39.162c-13.044 0-23.655-10.612-23.655-23.655zm-176.687 11.285c5.453-1.919 10.754-4.168 15.873-6.74v27.641c-8.039-3.99-14.023-11.596-15.873-20.901zm122.673 136.077h48.686v20.61c0 12.911-10.504 23.416-23.416 23.416h-1.854c-12.912 0-23.416-10.504-23.416-23.416zm153.62 109.037v32.259c0 .432-.305.779-.708.878h-47.924v-11.625c0-4.142-3.357-7.5-7.5-7.5s-7.5 3.358-7.5 7.5v11.625h-131.291v-11.625c0-4.142-3.357-7.5-7.5-7.5s-7.5 3.358-7.5 7.5v11.625h-47.924c-.403-.099-.708-.446-.708-.878v-32.259c0-45.92 37.358-83.278 83.278-83.278h7.011c2.525 18.755 18.625 33.266 38.061 33.266h1.854c19.435 0 35.536-14.511 38.061-33.266h7.011c45.921 0 83.279 37.358 83.279 83.278zm-104.398-124.037h-49.758c-33.302 0-63.171-19.329-77.259-48.508 3.086.796 6.32 1.22 9.651 1.22h39.161c21.314 0 38.654-17.341 38.654-38.655v-17.013c0-8.09 6.582-14.671 14.672-14.671s14.671 6.581 14.671 14.671v17.013c0 21.314 17.341 38.655 38.655 38.655h39.161c3.336 0 6.574-.425 9.664-1.223-14.066 29.207-43.862 48.511-77.272 48.511zm106.264-100.174v-10.929c4.514-.237 8.692-.558 12.508-.922-2.918 5.13-7.278 9.255-12.508 11.851z"/><path d="m279.015 451.508c0 4.142 3.357 7.5 7.5 7.5h25.01c4.143 0 7.5-3.358 7.5-7.5s-3.357-7.5-7.5-7.5h-25.01c-4.143 0-7.5 3.358-7.5 7.5z"/></g></g></svg>