<?xml version="1.0"?>
<svg xmlns="http://www.w3.org/2000/svg" xmlns:xlink="http://www.w3.org/1999/xlink" version="1.1" id="Capa_1" x="0px" y="0px" viewBox="0 0 512 512" style="enable-background:new 0 0 512 512;" xml:space="preserve" width="512px" height="512px" class=""><g><path style="fill:#04458F" d="M407,0H105C47.103,0,0,47.103,0,105v302c0,57.897,47.103,105,105,105h302  c57.897,0,105-47.103,105-105V105C512,47.103,464.897,0,407,0z" data-original="#DD86F2" class="active-path" data-old_color="#DD86F2"/><path style="fill:#202095" d="M407,0H256v512h151c57.897,0,105-47.103,105-105V105C512,47.103,464.897,0,407,0z" data-original="#CD67E5" class="" data-old_color="#CD67E5"/><polygon style="fill:#FFFFFF" points="256,368.125 120.073,466.882 171.993,307.09 36.064,208.333 204.08,208.333 256,48.54   307.92,208.333 475.936,208.333 340.007,307.09 391.927,466.882 " data-original="#FFFFFF" class=""/><polygon style="fill:#F2F2F2" points="475.936,208.333 307.92,208.333 256,48.54 256,368.125 391.927,466.882 340.007,307.09 " data-original="#F2F2F2" class="" data-old_color="#F2F2F2"/><polygon style="fill:#04458F" points="216,246 216,306 286,306 286,276 286,246 " data-original="#DD86F2" class="active-path" data-old_color="#DD86F2"/><g>
	<polygon style="fill:#202095" points="306,256 286,276 306,296 316,296 316,256  " data-original="#CD67E5" class="" data-old_color="#CD67E5"/>
	<polygon style="fill:#202095" points="256,246 256,306 286,306 286,276 286,246  " data-original="#CD67E5" class="" data-old_color="#CD67E5"/>
</g></g> </svg>
